
<svg width="28.3920529px" height="31.5204918px" viewBox="0 0 28.3920529 31.5204918" version="1.1" xmlns="http://www.w3.org/2000/svg" xmlns:xlink="http://www.w3.org/1999/xlink">
    <g id="Page-1" stroke="none" stroke-width="1" fill="none" fill-rule="evenodd">
        <g id="Purchase" transform="translate(-21, -44)" fill="#F5D698" fill-rule="nonzero">
            <g id="UP-Logo---Gold" transform="translate(21, 44)">
                <path d="M20.0070574,13.0424653 C20.9423565,13.74342 21.9737523,14.1784653 22.9778852,14.758284 C23.2316133,14.8937765 23.3297885,15.0693414 23.3326888,15.3546345 C23.3620785,18.0896677 23.4014743,20.825426 23.4415952,23.5604592 C23.4452205,23.7934018 23.3900181,23.9747191 23.1756858,24.1015589 C21.6261511,25.017571 20.0808701,25.9406888 18.5306103,26.8545257 C18.061148,27.1312145 18.0001934,27.0910453 17.9930393,26.5434683 C17.9572205,23.9518067 17.9127492,21.3600967 17.8969909,18.7676617 C17.894139,18.3419456 17.7536677,18.0989487 17.3823807,17.8961209 C13.4733535,15.7581148 9.59796979,13.5606526 5.71045317,11.3839275 C4.10998912,10.4944532 2.51168097,9.59782479 0.904058006,8.72343204 C0.58726284,8.53133537 0.580099094,8.40952268 0.889005438,8.22675531 C1.62508761,7.79025984 2.36690272,7.36381875 3.10154924,6.92442298 C5.27825982,5.59134745 11.8549849,1.57907434 14.6100785,0.108343221 C14.8853172,-0.0385864222 15.2149849,-0.0357195219 15.4880483,0.114793493 C17.5988399,1.28162902 26.7815831,6.35963748 28.3132326,7.20899096 C28.412858,7.26419337 28.419287,7.40538975 28.3254139,7.46987313 C27.2037221,8.23676135 21.7938369,11.9286526 20.0070574,13.0424653 Z M15.1275408,5.25157706 C15.1275408,5.25157706 12.617571,6.74165561 11.1203384,7.68918431 C10.8393474,7.84613899 10.8443746,7.9988399 11.1196133,8.15289428 C12.1552628,8.73276135 13.2217523,9.263855 14.2237583,9.89670093 C14.8609547,10.2988278 15.3318187,10.3288943 15.9990816,9.89239881 C16.84771,9.33694262 19.453003,7.73935954 19.4996012,7.68845923 C19.5340181,7.65119035 15.1275408,5.25157706 15.1275408,5.25157706 Z" id="Shape"></path>
                <path d="M5.82259819,24.0175952 C5.82259819,24.1211843 5.88089426,24.2160242 5.97331722,24.2628157 L9.66482175,26.1316737 C9.84763746,26.2242417 10.0637583,26.0913595 10.0637583,25.8864532 L10.0637583,16.5578248 C10.0637583,16.3494864 10.2865498,16.2168943 10.4696556,16.316278 L16.3895589,19.5279275 C16.4781631,19.5759758 16.5333172,19.6686888 16.5333172,19.7695227 L16.5333172,27.9631178 C16.5333172,28.0603746 16.4819335,28.150429 16.3981631,28.1998308 L10.8347069,31.4823444 C10.7570755,31.5281692 10.6618489,31.533003 10.5799637,31.4952508 L0.159758792,26.6907553 C0.0623738973,26.645849 0,26.5483988 0,26.441136 L0,11.1129426 C0,10.905861 0.22032,10.7731722 0.403357583,10.8700423 L5.67627795,13.6596496 C5.76628399,13.7072629 5.82259819,13.8007493 5.82259819,13.9025982 L5.82259819,24.0175952 Z" id="Path"></path>
            </g>
        </g>
    </g>
</svg>