
<svg width="160px" height="31.5204918px" viewBox="0 0 160 31.5204918" version="1.1" xmlns="http://www.w3.org/2000/svg" xmlns:xlink="http://www.w3.org/1999/xlink">
    <g id="Page-1" stroke="none" stroke-width="1" fill="none" fill-rule="evenodd">
        <g id="Home" transform="translate(-21, -44)" fill="#F5D698" fill-rule="nonzero">
            <g id="UP-Logo---Gold" transform="translate(21, 44)">
                <path d="M44.9554079,6.64841089 C44.9554079,6.51900908 44.9923384,6.41735349 45.0662961,6.34339579 C45.1402538,6.26943809 45.2419094,6.23250757 45.3713112,6.23250757 L49.7522659,6.23250757 C49.8818127,6.23250757 49.9833233,6.26943809 50.057281,6.34339579 C50.1312387,6.41735349 50.1684592,6.51900908 50.1684592,6.64841089 L50.1684592,25.2261027 C50.1684592,25.3555046 50.1312387,25.4571601 50.057281,25.5311178 C49.9833233,25.6050755 49.8818127,25.6420544 49.7522659,25.6420544 L45.5653897,25.6420544 C45.343565,25.6420544 45.1772326,25.5495831 45.0662961,25.3647372 L39.4097885,15.9372568 C39.3728097,15.8818127 39.3358792,15.8632991 39.2989003,15.8818127 C39.2619215,15.8818127 39.2434562,15.9187916 39.2434562,15.9927009 L39.2989003,25.2261027 C39.2989003,25.3555046 39.2619215,25.4571601 39.1879637,25.5311178 C39.1140544,25.6050755 39.0123505,25.6420544 38.882997,25.6420544 L34.5019456,25.6420544 C34.3725438,25.6420544 34.2708882,25.6050755 34.1969789,25.5311178 C34.1230211,25.4571601 34.0860423,25.3555046 34.0860423,25.2261027 L34.0860423,6.64841089 C34.0860423,6.51900908 34.1230211,6.41735349 34.1969789,6.34339579 C34.2708882,6.26943809 34.3725438,6.23250757 34.5019456,6.23250757 L38.6888701,6.23250757 C38.9106949,6.23250757 39.0770755,6.32493053 39.1879637,6.50977645 L44.8167251,15.9372568 C44.8537039,15.9927009 44.8906828,16.0204471 44.9276616,16.0204471 C44.9646405,16.0019819 44.9831057,15.9557704 44.9831057,15.8818127 L44.9554079,6.64841089 Z" id="Path"></path>
                <path d="M66.3946828,10.2807493 C66.3946828,10.4101511 66.3579456,10.511855 66.2839879,10.5857644 C66.2100302,10.6597221 66.1080363,10.6967009 65.9789728,10.6967009 L57.6879758,10.6967009 C57.5956495,10.6967009 57.5497281,10.7429124 57.5497281,10.8353354 L57.5497281,13.4417402 C57.5497281,13.5341632 57.5956495,13.5803746 57.6879758,13.5803746 L62.8176435,13.5803746 C62.9471903,13.5803746 63.0487009,13.6173535 63.1226586,13.6913112 C63.1966163,13.7652206 63.2338369,13.8669245 63.2338369,13.9963263 L63.2338369,17.6009184 C63.2338369,17.7303203 63.1966163,17.8320242 63.1226586,17.9059336 C63.0487009,17.9798913 62.9471903,18.0168701 62.8176435,18.0168701 L57.6879758,18.0168701 C57.5956495,18.0168701 57.5497281,18.0630816 57.5497281,18.1555046 L57.5497281,21.0391783 C57.5497281,21.1316012 57.5956495,21.177861 57.6879758,21.177861 L65.9789728,21.177861 C66.1080363,21.177861 66.2100302,21.2147916 66.2839879,21.2887493 C66.3579456,21.362707 66.3946828,21.4643626 66.3946828,21.5937644 L66.3946828,25.2261027 C66.3946828,25.3555046 66.3579456,25.4571601 66.2839879,25.5311178 C66.2100302,25.6050755 66.1080363,25.6420544 65.9789728,25.6420544 L52.7526284,25.6420544 C52.6230816,25.6420544 52.521571,25.6050755 52.4476133,25.5311178 C52.3736556,25.4571601 52.336435,25.3555046 52.336435,25.2261027 L52.336435,6.64841089 C52.336435,6.51900908 52.3736556,6.41735349 52.4476133,6.34339579 C52.521571,6.26943809 52.6230816,6.23250757 52.7526284,6.23250757 L65.9789728,6.23250757 C66.1080363,6.23250757 66.2100302,6.26943809 66.2839879,6.34339579 C66.3579456,6.41735349 66.3946828,6.51900908 66.3946828,6.64841089 L66.3946828,10.2807493 Z" id="Path"></path>
                <path d="M82.6518429,6.23250757 C82.7813897,6.23250757 82.8829003,6.26943809 82.956858,6.34339579 C83.0308157,6.41735349 83.0680363,6.51900908 83.0680363,6.64841089 L83.0680363,10.3084955 C83.0680363,10.4378973 83.0308157,10.5395529 82.956858,10.6135106 C82.8829003,10.68742 82.7813897,10.7243988 82.6518429,10.7243988 L77.9934743,10.7243988 C77.901148,10.7243988 77.8552266,10.7706103 77.8552266,10.8630333 L77.8552266,25.2261027 C77.8552266,25.3555046 77.818006,25.4571601 77.7440483,25.5311178 C77.6700906,25.6050755 77.5685801,25.6420544 77.4390332,25.6420544 L73.0581269,25.6420544 C72.9285801,25.6420544 72.8270695,25.6050755 72.7531118,25.5311178 C72.6791541,25.4571601 72.6419335,25.3555046 72.6419335,25.2261027 L72.6419335,10.8630333 C72.6419335,10.7706103 72.5960121,10.7243988 72.5036858,10.7243988 L67.9840483,10.7243988 C67.8545015,10.7243988 67.7529909,10.68742 67.6790332,10.6135106 C67.6050755,10.5395529 67.567855,10.4378973 67.567855,10.3084955 L67.567855,6.64841089 C67.567855,6.51900908 67.6050755,6.41735349 67.6790332,6.34339579 C67.7529909,6.26943809 67.8545015,6.23250757 67.9840483,6.23250757 L82.6518429,6.23250757 Z" id="Path"></path>
                <path d="M90.1587915,25.6420544 C90.0476133,25.6420544 89.9461027,25.6143082 89.8537764,25.5588641 C89.7609668,25.4849064 89.705861,25.3924834 89.6870091,25.2815468 L84.1972205,6.703855 C84.178852,6.66687615 84.1691843,6.62066467 84.1691843,6.56522056 C84.1691843,6.34339579 84.2987311,6.23250757 84.5573414,6.23250757 L89.2712991,6.23250757 C89.5115408,6.23250757 89.6594562,6.35262842 89.7150453,6.59296679 L92.0720242,15.6322417 C92.0903927,15.6877342 92.1179456,15.7246647 92.1551662,15.7431783 C92.1919033,15.7431783 92.2199396,15.7061994 92.2383082,15.6322417 L94.0959517,6.59296679 C94.1515408,6.35262842 94.3086405,6.23250757 94.5672508,6.23250757 L98.6155891,6.23250757 C98.8558308,6.23250757 99.0037462,6.35262842 99.0593353,6.59296679 L101.138852,15.6322417 C101.157221,15.7061994 101.185257,15.7431783 101.221994,15.7431783 C101.259215,15.7431783 101.286767,15.7061994 101.305136,15.6322417 L103.384653,6.59296679 C103.440242,6.35262842 103.588157,6.23250757 103.828399,6.23250757 L108.569909,6.23250757 C108.717825,6.23250757 108.819335,6.27871905 108.874924,6.37114201 C108.948864,6.44505138 108.967251,6.55598793 108.930514,6.703855 L103.994683,25.2815468 C103.939577,25.5218852 103.791662,25.6420544 103.55142,25.6420544 L99.1149245,25.6420544 C98.8558308,25.6420544 98.6987311,25.5218852 98.643142,25.2815468 L96.6467674,15.7431783 C96.6283988,15.6877342 96.6008459,15.6599879 96.5636254,15.6599879 C96.5268882,15.6599879 96.498852,15.6877342 96.4804834,15.7431783 L94.7335347,25.253849 C94.678429,25.5126526 94.5305136,25.6420544 94.2902719,25.6420544 L90.1587915,25.6420544 Z" id="Path"></path>
                <path d="M117.012689,25.9747674 C115.478429,25.9747674 114.119637,25.6697523 112.936798,25.0597704 C111.771843,24.4312266 110.866465,23.5624411 110.219215,22.4533172 C109.572447,21.3257281 109.249063,20.0225257 109.249063,18.54371 L109.249063,13.330852 C109.249063,11.8889668 109.572447,10.6135106 110.219215,9.50438673 C110.866465,8.39526286 111.771843,7.53570999 112.936798,6.92567978 C114.119637,6.3156979 115.478429,6.0106828 117.012689,6.0106828 C118.565317,6.0106828 119.924109,6.3156979 121.08858,6.92567978 C122.271903,7.53570999 123.186949,8.39526286 123.833716,9.50438673 C124.480483,10.6135106 124.80435,11.8889668 124.80435,13.330852 L124.80435,18.54371 C124.80435,20.0225257 124.480483,21.3257281 123.833716,22.4533172 C123.186949,23.5624411 122.271903,24.4312266 121.08858,25.0597704 C119.924109,25.6697523 118.565317,25.9747674 117.012689,25.9747674 Z M117.012689,21.510574 C117.789003,21.510574 118.408218,21.261003 118.870332,20.7619094 C119.350816,20.2443505 119.591541,19.5603626 119.591541,18.7100423 L119.591541,13.2753595 C119.591541,12.4250393 119.350816,11.7503323 118.870332,11.2512387 C118.408218,10.7336314 117.789003,10.4748762 117.012689,10.4748762 C116.254743,10.4748762 115.635529,10.7336314 115.155045,11.2512387 C114.692931,11.7503323 114.461873,12.4250393 114.461873,13.2753595 L114.461873,18.7100423 C114.461873,19.5603626 114.692931,20.2443505 115.155045,20.7619094 C115.635529,21.261003 116.254743,21.510574 117.012689,21.510574 Z" id="Shape"></path>
                <path d="M136.923746,25.6420544 C136.683505,25.6420544 136.526405,25.5403505 136.452447,25.3370393 L133.402296,18.294139 C133.365559,18.2201813 133.30997,18.1832024 133.236012,18.1832024 L132.071541,18.1832024 C131.979215,18.1832024 131.93281,18.2294139 131.93281,18.3218852 L131.93281,25.2261027 C131.93281,25.3555046 131.896073,25.4571601 131.822115,25.5311178 C131.748157,25.6050755 131.646163,25.6420544 131.5171,25.6420544 L127.13571,25.6420544 C127.006647,25.6420544 126.904653,25.6050755 126.831178,25.5311178 C126.757221,25.4571601 126.72,25.3555046 126.72,25.2261027 L126.72,6.64841089 C126.72,6.51900908 126.757221,6.41735349 126.831178,6.34339579 C126.904653,6.26943809 127.006647,6.23250757 127.13571,6.23250757 L135.537402,6.23250757 C136.794683,6.23250757 137.894381,6.49126286 138.836979,7.00887011 C139.798429,7.52647736 140.538006,8.25662842 141.055227,9.19937162 C141.591299,10.1236496 141.859577,11.1957946 141.859577,12.4158067 C141.859577,13.6358671 141.554562,14.7080121 140.944532,15.6322417 C140.35287,16.5380544 139.530151,17.2034804 138.476858,17.6286647 C138.384048,17.6656435 138.356495,17.7303203 138.393716,17.8227432 L141.915166,25.1429124 C141.951903,25.253849 141.970272,25.3185257 141.970272,25.3370393 C141.970272,25.4294623 141.933535,25.5033716 141.859577,25.5588641 C141.785619,25.6143082 141.693293,25.6420544 141.582115,25.6420544 L136.923746,25.6420544 Z M132.071541,10.6967009 C131.979215,10.6967009 131.93281,10.7429124 131.93281,10.8353354 L131.93281,14.0794683 C131.93281,14.1719396 131.979215,14.2181511 132.071541,14.2181511 L134.677946,14.2181511 C135.269607,14.2181511 135.750091,14.061003 136.119879,13.7467553 C136.489668,13.4140423 136.67432,12.988858 136.67432,12.4712508 C136.67432,11.9351783 136.489668,11.5100423 136.119879,11.1957946 C135.750091,10.8630333 135.269607,10.6967009 134.677946,10.6967009 L132.071541,10.6967009 Z" id="Shape"></path>
                <path d="M144.195287,25.6420544 C144.06574,25.6420544 143.96423,25.6050755 143.890272,25.5311178 C143.816314,25.4571601 143.779094,25.3555046 143.779094,25.2261027 L143.779094,6.64841089 C143.779094,6.51900908 143.816314,6.41735349 143.890272,6.34339579 C143.96423,6.26943809 144.06574,6.23250757 144.195287,6.23250757 L148.576193,6.23250757 C148.70574,6.23250757 148.807251,6.26943809 148.881208,6.34339579 C148.955166,6.41735349 148.991903,6.51900908 148.991903,6.64841089 L148.991903,13.2753595 C148.991903,13.330852 149.010755,13.3678308 149.047492,13.3862961 C149.08423,13.4047613 149.12145,13.3862961 149.158187,13.330852 L153.98284,6.48203023 C154.094018,6.3156979 154.269486,6.23250757 154.509728,6.23250757 L159.473112,6.23250757 C159.694985,6.23250757 159.806163,6.3156979 159.806163,6.48203023 C159.806163,6.55598793 159.778127,6.63917827 159.722538,6.73160123 L153.955287,14.7449426 C153.91855,14.8004351 153.91855,14.8651118 153.955287,14.9390695 L159.916858,25.1429124 C159.972447,25.2168701 160,25.3000604 160,25.3924834 C160,25.5588641 159.879637,25.6420544 159.639396,25.6420544 L154.731601,25.6420544 C154.49136,25.6420544 154.325076,25.5495831 154.232749,25.3647372 L150.406284,18.54371 C150.387915,18.4882175 150.359879,18.4605197 150.323142,18.4605197 C150.285921,18.4605197 150.249184,18.4882175 150.211964,18.54371 L149.047492,20.3182598 C149.010755,20.3922175 148.991903,20.4476617 148.991903,20.4846405 L148.991903,25.2261027 C148.991903,25.3555046 148.955166,25.4571601 148.881208,25.5311178 C148.807251,25.6050755 148.70574,25.6420544 148.576193,25.6420544 L144.195287,25.6420544 Z" id="Path"></path>
                <path d="M20.0070574,13.0424653 C20.9423565,13.74342 21.9737523,14.1784653 22.9778852,14.758284 C23.2316133,14.8937765 23.3297885,15.0693414 23.3326888,15.3546345 C23.3620785,18.0896677 23.4014743,20.825426 23.4415952,23.5604592 C23.4452205,23.7934018 23.3900181,23.9747191 23.1756858,24.1015589 C21.6261511,25.017571 20.0808701,25.9406888 18.5306103,26.8545257 C18.061148,27.1312145 18.0001934,27.0910453 17.9930393,26.5434683 C17.9572205,23.9518067 17.9127492,21.3600967 17.8969909,18.7676617 C17.894139,18.3419456 17.7536677,18.0989487 17.3823807,17.8961209 C13.4733535,15.7581148 9.59796979,13.5606526 5.71045317,11.3839275 C4.10998912,10.4944532 2.51168097,9.59782479 0.904058006,8.72343204 C0.58726284,8.53133537 0.580099094,8.40952268 0.889005438,8.22675531 C1.62508761,7.79025984 2.36690272,7.36381875 3.10154924,6.92442298 C5.27825982,5.59134745 11.8549849,1.57907434 14.6100785,0.108343221 C14.8853172,-0.0385864222 15.2149849,-0.0357195219 15.4880483,0.114793493 C17.5988399,1.28162902 26.7815831,6.35963748 28.3132326,7.20899096 C28.412858,7.26419337 28.419287,7.40538975 28.3254139,7.46987313 C27.2037221,8.23676135 21.7938369,11.9286526 20.0070574,13.0424653 Z M15.1275408,5.25157706 C15.1275408,5.25157706 12.617571,6.74165561 11.1203384,7.68918431 C10.8393474,7.84613899 10.8443746,7.9988399 11.1196133,8.15289428 C12.1552628,8.73276135 13.2217523,9.263855 14.2237583,9.89670093 C14.8609547,10.2988278 15.3318187,10.3288943 15.9990816,9.89239881 C16.84771,9.33694262 19.453003,7.73935954 19.4996012,7.68845923 C19.5340181,7.65119035 15.1275408,5.25157706 15.1275408,5.25157706 Z" id="Shape"></path>
                <path d="M5.82259819,24.0175952 C5.82259819,24.1211843 5.88089426,24.2160242 5.97331722,24.2628157 L9.66482175,26.1316737 C9.84763746,26.2242417 10.0637583,26.0913595 10.0637583,25.8864532 L10.0637583,16.5578248 C10.0637583,16.3494864 10.2865498,16.2168943 10.4696556,16.316278 L16.3895589,19.5279275 C16.4781631,19.5759758 16.5333172,19.6686888 16.5333172,19.7695227 L16.5333172,27.9631178 C16.5333172,28.0603746 16.4819335,28.150429 16.3981631,28.1998308 L10.8347069,31.4823444 C10.7570755,31.5281692 10.6618489,31.533003 10.5799637,31.4952508 L0.159758792,26.6907553 C0.0623738973,26.645849 0,26.5483988 0,26.441136 L0,11.1129426 C0,10.905861 0.22032,10.7731722 0.403357583,10.8700423 L5.67627795,13.6596496 C5.76628399,13.7072629 5.82259819,13.8007493 5.82259819,13.9025982 L5.82259819,24.0175952 Z" id="Path"></path>
            </g>
        </g>
    </g>
</svg>